<?xml version="1.0" encoding="utf-8"?>
<!-- Generator: Adobe Illustrator 16.0.0, SVG Export Plug-In . SVG Version: 6.00 Build 0)  -->
<!DOCTYPE svg PUBLIC "-//W3C//DTD SVG 1.1//EN" "http://www.w3.org/Graphics/SVG/1.1/DTD/svg11.dtd">
<svg version="1.1" xmlns="http://www.w3.org/2000/svg" xmlns:xlink="http://www.w3.org/1999/xlink" x="0px" y="0px" width="84px"
	 height="84px" viewBox="0 0 84 84" enable-background="new 0 0 84 84" xml:space="preserve">
<g id="Calque_1">
	<path fill="#334149" d="M41.872,75.999c-19.023,0-34.499-15.476-34.499-34.499S22.849,7.001,41.872,7.001
		S76.371,22.477,76.371,41.5S60.896,75.999,41.872,75.999z"/>
</g>
<g id="Calque_3">
	<g>
		<path fill="#00111C" d="M41.872,16c-13.255,0-24,10.745-24,24v24c0,6.627,5.373,12,12,12h24c6.627,0,12-5.373,12-12V40
			C65.872,26.745,55.127,16,41.872,16z"/>
		<path fill="#00111C" d="M53.872,78h-24c-7.72,0-14-6.28-14-14V40c0-14.336,11.663-26,26-26s26,11.664,26,26v24
			C67.872,71.72,61.592,78,53.872,78z M41.872,18c-12.131,0-22,9.869-22,22v24c0,5.514,4.486,10,10,10h24c5.514,0,10-4.486,10-10V40
			C63.872,27.869,54.003,18,41.872,18z"/>
	</g>
	<path fill="#D3D6DE" d="M65.872,64V40c0-13.255-10.745-24-24-24s-24,10.745-24,24v24"/>
	<path fill="#D3D6DE" d="M17.872,64c0,6.627,5.373,12,12,12h24c6.627,0,12-5.373,12-12"/>
	<polygon fill="#2979E2" points="50.872,27 32.872,27 34.872,21 48.872,21 	"/>
	<path fill="#2979E2" d="M29.872,27l2-6h-4.655c-2.161,1.67-4.028,3.699-5.515,6H29.872z"/>
	<path fill="#2979E2" d="M53.872,27h8.17c-1.486-2.301-3.354-4.33-5.515-6h-4.655L53.872,27z"/>
	<rect x="32.872" y="62" fill="#334149" width="18" height="6"/>
	<rect x="25.872" y="62" fill="#334149" width="3" height="6"/>
	<rect x="56.872" y="62" fill="#334149" width="9" height="6"/>
	<rect x="17.872" y="62" fill="#334149" width="6" height="6"/>
	<path fill="#00111C" d="M41.872,17c-3.034,0-5.934,0.568-8.605,1.596L34.872,20h14l1.605-1.404C47.806,17.568,44.906,17,41.872,17z
		"/>
	<rect x="32.872" y="58" fill="#00111C" width="18" height="2"/>
	<rect x="17.872" y="52" fill="#2979E2" width="48" height="3"/>
	<path fill="#334149" d="M65.821,56c0.027-0.33,0.051-0.662,0.051-1h-48c0,0.338,0.022,0.67,0.05,1H65.821z"/>
	<rect x="19.872" y="38" fill="#334149" width="3" height="12"/>
	<rect x="32.872" y="44" fill="#334149" width="1" height="6"/>
	<rect x="32.872" y="44" fill="#334149" width="1" height="6"/>
	<rect x="60.872" y="38" fill="#334149" width="3" height="12"/>
	<rect x="24.872" y="38" fill="#334149" width="6" height="12"/>
	<rect x="35.872" y="44" fill="#334149" width="12" height="6"/>
	<polygon fill="#334149" points="47.872,42 33.206,42 36.206,30 47.872,30 47.872,33 44.872,33 44.872,39 47.872,39 	"/>
	<circle fill="#334149" cx="54.956" cy="45.625" r="4.5"/>
	<circle fill="#00111C" cx="54.956" cy="45.625" r="2.5"/>
	<circle fill="#00111C" cx="39.956" cy="35.625" r="3"/>
	<circle fill="#EF371F" cx="44.956" cy="46.625" r="1.5"/>
	<circle fill="#FFFFFF" cx="38.956" cy="34.625" r="1"/>
	<g>
		<path fill="#00111C" d="M41.872,7.75c18.64,0,33.75,15.11,33.75,33.75s-15.11,33.75-33.75,33.75S8.122,60.14,8.122,41.5
			S23.232,7.75,41.872,7.75 M41.872,1.75c-21.918,0-39.75,17.832-39.75,39.75s17.832,39.75,39.75,39.75s39.75-17.832,39.75-39.75
			S63.79,1.75,41.872,1.75L41.872,1.75z"/>
	</g>
</g>
<g id="Calque_2">
</g>
</svg>
